<?xml version="1.0" ?>
<!-- Uploaded to: SVG Repo, www.svgrepo.com, Generator: SVG Repo Mixer Tools -->
<svg width="800px" height="800px" viewBox="0 0 512 512" id="Layer_1" version="1.1" xml:space="preserve" xmlns="http://www.w3.org/2000/svg" xmlns:xlink="http://www.w3.org/1999/xlink">
<style type="text/css">
	.st0{fill:#3B4652;}
	.st1{fill:#2B79C2;}
</style>
<g>
<path class="st0" d="M455.8,165.6c-13.5-13.5-32-21.8-52.6-21.8h-9.9v126.7c0,18.1-14.7,32.8-32.8,32.8h-81.8   c-25.1,0-45.4-20.4-45.4-45.4c0-25.1,20.4-45.4,45.4-45.4H315v-57.2l-1,2.5h-32v1.7c0,11.5-7.5,21.3-17.9,24.7   c-2.8,15.3-16.3,27-32.4,27c-13.5,0-25.1-8.1-30.2-19.8c-0.2,0-0.5,0-0.7,0c-2.8,0-5.5-0.4-8-1.3c3,8.9,4.5,18.3,4.5,28v117.1   h280.5V218.2C477.6,197.7,469.3,179.1,455.8,165.6z"/>
<path class="st0" d="M324.1,258c0,12.2-4.8,23.3-12.7,31.4h49.1c10.4,0,18.8-8.4,18.8-18.8V86.9h69.2V34.7H347.8   c-10.4,0-18.8,8.4-18.8,18.9v173h-17.6C319.3,234.7,324.1,245.8,324.1,258z"/>
<path class="st0" d="M34.4,376.6c0,4.3,3.5,7.7,7.7,7.7h141v-35H34.4V376.6z"/>
<rect class="st0" height="35" width="280.5" x="197.1" y="349.3"/>
<path class="st0" d="M108.8,143.8c-41.1,0-74.4,33.3-74.4,74.4v117.1h148.7V218.2c0-20.5-8.3-39.1-21.8-52.6   C147.9,152.2,129.3,143.8,108.8,143.8z M149.3,286.6H68.2v-32.8h81.1V286.6z"/>
<path class="st1" d="M247.2,258c0,17.4,14.1,31.4,31.4,31.4c17.4,0,31.4-14.1,31.4-31.4c0-17.4-14.1-31.4-31.4-31.4   C261.3,226.5,247.2,240.6,247.2,258z"/>
<path class="st1" d="M212.6,165.5v12.8c0,10.5,8.5,19,19,19c10.5,0,19-8.5,19-19v-8c1.6,0.8,3.5,1.3,5.4,1.3c6.6,0,12-5.4,12-12   v-15.7h36.6c1.6-3.9,2.5-8.1,2.5-12.6c0-12-6.4-22.6-16-28.4c0,0,0,0,0,0c0.2-1.6,0.3-3.2,0.3-4.8c0-21.1-17.1-38.3-38.3-38.3   c-16.9,0-31.2,10.9-36.3,26.1h-0.1c-13.1,0-24.6,6.6-31.5,16.6c-1.7-0.4-3.5-0.6-5.3-0.6c-12.8,0-23.3,10.4-23.3,23.3   c0,7.6,3.7,14.4,9.3,18.7h22.7v21.6c0,6.6,5.4,12,12,12C207.2,177.5,212.6,172.1,212.6,165.5z"/>
<polygon class="st1" points="310.1,398.3 310.1,435.2 283,435.2 283,477.3 229,477.3 229,435.2 201.9,435.2 201.9,398.3  "/>
</g>
</svg>