<?xml version="1.0" ?>
<!-- Uploaded to: SVG Repo, www.svgrepo.com, Generator: SVG Repo Mixer Tools -->
<svg width="800px" height="800px" viewBox="0 0 512 512" id="Layer_1" version="1.1" xml:space="preserve" xmlns="http://www.w3.org/2000/svg" xmlns:xlink="http://www.w3.org/1999/xlink">
<style type="text/css">
	.st0{fill:#3B4652;}
	.st1{fill:#2B79C2;}
</style>
<g>
<path class="st0" d="M437.6,263.6V205l-8.2-5.8v1.6c0,13.8-11.2,24.9-24.9,24.9c-13.8,0-24.9-11.2-24.9-24.9v-36.9l-15.8-11.2v8.6   c0,15.8-12.9,28.7-28.7,28.7c-15.8,0-28.7-12.9-28.7-28.7v-49.3l-48-34.1l-50,35.4l-17.6,12.5v40.8c0,15.8-12.9,28.7-28.7,28.7   c-6.1,0-11.8-1.9-16.5-5.2V223l112.8-79.9l117.6,83.3l34.6,24.6l28.1,19.9C437.9,268.5,437.6,266.1,437.6,263.6z"/>
<path class="st0" d="M78.8,226.5V205l-11.6,8.3v35.5c0,9.2-4.9,17.4-12.8,21.8l8,11.3L98,256.6C86.7,251.3,78.8,239.8,78.8,226.5z"/>
<path class="st0" d="M258.2,160.2l-117,82.9l-2.1,4.9h-1.6c-4.8,5.7-11.4,9.6-18.8,11.1l-12.7,9v200.7c0,7,5.7,12.6,12.6,12.6h71.5   c7,0,12.6-5.7,12.6-12.6V368.6c0-30.7,24.6-56.2,55.3-56.3c15.4-0.1,29.4,6.2,39.4,16.3c10,10,16.3,23.9,16.3,39.3v101.1   c0,7,5.7,12.6,12.6,12.6h71.5c7,0,12.6-5.7,12.6-12.6V268.1l-42.8-30.3L258.2,160.2z"/>
<path class="st1" d="M492.8,177.4c-8.5-9.4-34.4-15.9-43.3-24.9c-17.4-17.6-35.9-34.2-56.7-47.8c-10.6-6.9-21.9-13.2-29.8-23   c-5.7-7-9.4-15.5-15.9-21.7c-3.5-3.4-8.4-5.8-13.2-6.3c-7.3-0.9-14-4.5-18.4-10.4c-2.2-3-4.2-5.5-4.8-6.1c-7-6.6-14-6.1-23.2-6.4   c-14.6-0.6-29.3-0.1-43.9,0c-15.8,0-29.9,9.5-45.8,7.3c-7.7-1.1-10.1,3.7-13.3,9.7c-3.9,7.3-8.3,14.2-13.6,20.5   c-10.9,12.9-25.3,22.3-41.8,26.2c-8.9,2-18.7,2.9-25.3,9.1c-7.1,6.8-8.5,18.5-16.5,24.2c-6.7,4.8-15.7,3.9-23.6,6   c-13.2,3.6-1.2,19-9.3,30c-5.9,8-33,12.5-36.3,21.9c-5.5,15.7,2.3,24.7,5.6,39l3.3,0l4.4,0v23.8c0,5.8,4.4,10.8,10.2,11.2   c1.7,0.1,3.3-0.1,4.7-0.7c4.1-1.6,7-5.5,7-10.2V206l39.6-28.1l0,45c0,9.5,5.5,18.2,14.3,21.8c2.7,1.1,4.5,1.2,6.3,1   c7.4-0.5,13.7-5.2,16.5-11.7h0c1-2.3,1.5-4.9,1.5-7.5v-75.9l15.7-11.2v26.7c0,7.9,6.1,14.8,14,15.1c8.5,0.4,15.4-6.4,15.4-14.7v-48   l2.1-1.5l21.4-15.2l58.1-41.2l58.1,41.2l4,2.8v56.6c0,8.4,7,15.1,15.4,14.7c7.9-0.4,14-7.2,14-15.1l0-35.3l43.8,31.1v44.2   c0,6,4.9,10.9,10.9,10.9c6,0,10.9-4.9,10.9-10.9v-28.7l36.2,25.7v65.9c0,5.1,2.6,9.7,6.5,12.4c2.6,1.8,5.7,2.8,9.1,2.7   c8.3-0.2,14.8-7.3,14.8-15.6l0-43.9h0c4.7,3.3,11.2,0.4,11.9-5.3C495.4,200.4,497.9,183,492.8,177.4z"/>
<path class="st1" d="M81.5,374.5h-19c-5.8,0-10.5,4.7-10.5,10.5V471c0,5.8,4.7,10.5,10.5,10.5h19c5.8,0,10.5-4.7,10.5-10.5v-86.1   C92,379.1,87.3,374.5,81.5,374.5z"/>
<path class="st1" d="M451.6,374.5h-16.7c-5.8,0-10.5,4.7-10.5,10.5V471c0,5.8,4.7,10.5,10.5,10.5h16.7c5.8,0,10.5-4.7,10.5-10.5   v-86.1C462,379.1,457.4,374.5,451.6,374.5z"/>
</g>
</svg>