<?xml version="1.0" ?>
<!-- Uploaded to: SVG Repo, www.svgrepo.com, Generator: SVG Repo Mixer Tools -->
<svg width="800px" height="800px" viewBox="0 0 512 512" version="1.1" xml:space="preserve" xmlns="http://www.w3.org/2000/svg" xmlns:xlink="http://www.w3.org/1999/xlink">
<style type="text/css">
	.st0{display:none;}
	.st1{fill:#FFE2D2;}
	.st2{fill:#FFDE83;}
	.st3{fill:#F57070;}
	.st4{fill:#DBDBEF;}
	.st5{fill:#BCE2FF;}
	.st6{fill:#48446D;}
	.st7{fill:#6E78FF;}
	.st8{fill:#FFBE83;}
	.st9{fill:#F5949E;}
	.st10{fill:#D0FF67;}
	.st11{fill:#C69C6D;}
	.st12{fill:#C5BDD3;}
	.st13{fill:#FFE2B8;}
	.st14{fill:#F54670;}
</style>
<g class="st0" id="Layer_1"/>
<g id="Layer_2">
<g>
<path class="st3" d="M412.34,217.22c-2.86-1.84-4.02-5.54-2.59-8.74c9.7-21.54,14.47-42.31,14.2-61.72    c-0.34-24.3-10.13-47.01-27.55-63.96c-17.43-16.94-40.39-26.07-64.71-25.73c-28.02,0.39-53.89,13.44-70.99,35.8    c-1.3,1.71-3.32,2.72-5.46,2.75h-0.1c-2.11,0-4.11-0.95-5.44-2.59c-17.71-21.87-43.98-34.2-71.96-33.79    c-24.3,0.34-47.02,10.12-63.96,27.55C96.84,104.22,87.7,127.2,88.05,151.5c0.73,52.14,37.37,110.87,108.9,174.56l0.08,0.06    c0.25,0.19,0.51,0.39,0.75,0.61c0.66,0.58,1.42,1.17,2.22,1.8l0.93,0.74c1.44,1.15,2.74,2.19,4.04,3.11    c0.94,0.67,1.91,1.29,2.93,1.96l0.58,0.37c1.41,0.89,2.82,1.79,4.23,2.58c1.16,0.66,2.38,1.3,3.53,1.89    c1.6,0.81,3.13,1.54,4.65,2.22c0.88,0.38,1.78,0.76,2.69,1.12c0.16,0.06,0.32,0.13,0.48,0.21l0.13,0.04    c0.04,0.02,0.08,0.03,0.12,0.05c1.51,0.6,3.17,1.19,5.1,1.81l0.23,0.08c1.02,0.33,2.03,0.66,3.06,0.95    c1.57,0.45,3.34,0.88,5.53,1.34l0.97,0.22c0.7,0.16,1.38,0.32,2.08,0.45c0.86,0.15,1.77,0.3,2.78,0.43    c1.17,0.16,2.3,0.29,3.44,0.42l0.1,0.02c0.38,0.03,0.84,0.1,1.3,0.16c0.36,0.05,0.72,0.1,1.08,0.13c3.1,0.26,6.05,0.36,8.8,0.32    h0.11c2.74-0.03,5.61-0.22,8.73-0.57c0.42-0.05,0.87-0.12,1.31-0.19c0.34-0.06,0.68-0.12,1.02-0.17l0.13-0.02l0.18-0.03    c1.93-0.26,4-0.56,6.04-1c0.66-0.14,1.3-0.3,1.94-0.47c0.36-0.09,0.72-0.18,1.08-0.27c1.07-0.27,2.18-0.56,3.3-0.86    c0.74-0.21,1.49-0.41,2.23-0.65c0.8-0.25,1.57-0.53,2.35-0.8l1.44-0.52c1.56-0.56,3.07-1.15,4.53-1.76c1.09-0.47,2.25-1,3.4-1.54    c1.46-0.7,2.95-1.46,4.51-2.32c1.45-0.78,2.52-1.4,3.51-1.99c1.4-0.85,2.82-1.8,4.15-2.7l0.43-0.3c1.06-0.73,2.06-1.41,3.02-2.13    c1.16-0.88,2.36-1.89,3.64-2.96l1.09-0.92c0.82-0.68,1.6-1.33,2.3-1.98c0.05-0.05,0.09-0.09,0.14-0.13    c0.18-0.16,0.37-0.31,0.55-0.46l0.11-0.09c26.53-25,48.3-49.48,64.72-72.78c1.96-2.77,5.55-3.69,8.53-2.36    c0.16,0.07,0.31,0.14,0.46,0.22c0.15,0.07,0.29,0.17,0.43,0.26c2.06-3.07,3.98-6.05,5.88-9.09c-0.13-0.09-0.27-0.18-0.4-0.3    c-0.14-0.1-0.26-0.22-0.38-0.33c-0.09-0.08-0.18-0.15-0.26-0.23c-0.32-0.32-0.62-0.68-0.87-1.06c-0.25-0.38-0.47-0.79-0.65-1.21    c-0.17-0.42-0.3-0.86-0.39-1.31c-0.09-0.45-0.14-0.91-0.14-1.36c0-0.46,0.05-0.92,0.14-1.37c0.09-0.45,0.22-0.89,0.39-1.31    c0.18-0.43,0.4-0.83,0.65-1.21s0.55-0.74,0.87-1.06c0.32-0.33,0.68-0.62,1.06-0.88c0.38-0.25,0.79-0.46,1.21-0.64    c0.42-0.17,0.86-0.31,1.31-0.4c0.9-0.18,1.83-0.18,2.74,0c0.33,0.07,0.66,0.17,0.99,0.29c0.11,0.03,0.21,0.07,0.32,0.11    c0.05,0.02,0.1,0.04,0.15,0.07c0.16,0.07,0.29,0.16,0.44,0.24c1.99-3.46,4.01-7.13,5.99-10.9c-0.15-0.07-0.3-0.14-0.44-0.23    C412.62,217.4,412.48,217.31,412.34,217.22z M122.46,152.48c-0.09,0.45-0.23,0.89-0.4,1.31c-0.18,0.42-0.39,0.83-0.65,1.21    c-0.25,0.38-0.54,0.74-0.86,1.06c-0.33,0.33-0.69,0.62-1.07,0.87c-0.38,0.26-0.78,0.47-1.21,0.65c-0.42,0.17-0.86,0.31-1.31,0.4    c-0.45,0.09-0.91,0.13-1.36,0.13c-0.46,0-0.92-0.04-1.37-0.13c-0.45-0.09-0.89-0.23-1.31-0.4c-0.43-0.18-0.83-0.39-1.21-0.65    c-0.38-0.25-0.74-0.54-1.06-0.87c-0.33-0.32-0.62-0.68-0.87-1.06c-0.26-0.38-0.47-0.79-0.65-1.21c-0.17-0.42-0.31-0.86-0.4-1.31    s-0.13-0.91-0.13-1.37c0-1.84,0.74-3.64,2.05-4.95c0.32-0.32,0.68-0.61,1.06-0.87c0.38-0.25,0.78-0.46,1.21-0.64    c0.42-0.17,0.86-0.31,1.31-0.4c0.9-0.18,1.83-0.18,2.73,0c0.45,0.09,0.89,0.23,1.31,0.4c0.43,0.18,0.83,0.39,1.21,0.64    c0.38,0.26,0.74,0.55,1.07,0.87c1.3,1.31,2.04,3.11,2.04,4.95C122.59,151.57,122.55,152.03,122.46,152.48z M179.28,93.54    c-0.27,0-0.54,0.01-0.82,0.01c-15.13,0.21-29.28,6.31-39.83,17.16c-5.15,5.3-9.16,11.41-11.9,18.15c-1.1,2.71-3.72,4.36-6.49,4.36    c-0.87,0-1.77-0.17-2.63-0.52c-3.58-1.45-5.3-5.54-3.85-9.12c3.43-8.42,8.42-16.03,14.83-22.63c13.16-13.53,30.8-21.13,49.67-21.4    c0.34,0,0.69-0.01,1.02-0.01c3.87,0,7,3.14,7,7C186.28,90.41,183.15,93.54,179.28,93.54z"/>
<path class="st6" d="M186.28,86.54c0,3.87-3.13,7-7,7c-0.27,0-0.54,0.01-0.82,0.01c-15.13,0.21-29.28,6.31-39.83,17.16    c-5.15,5.3-9.16,11.41-11.9,18.15c-1.1,2.71-3.72,4.36-6.49,4.36c-0.87,0-1.77-0.17-2.63-0.52c-3.58-1.45-5.3-5.54-3.85-9.12    c3.43-8.42,8.42-16.03,14.83-22.63c13.16-13.53,30.8-21.13,49.67-21.4c0.34,0,0.69-0.01,1.02-0.01    C183.15,79.54,186.28,82.68,186.28,86.54z"/>
<path class="st6" d="M122.59,151.11c0,0.46-0.04,0.92-0.13,1.37s-0.23,0.89-0.4,1.31c-0.18,0.42-0.39,0.83-0.65,1.21    c-0.25,0.38-0.54,0.74-0.86,1.06c-0.33,0.33-0.69,0.62-1.07,0.87c-0.38,0.26-0.78,0.47-1.21,0.65c-0.42,0.17-0.86,0.31-1.31,0.4    c-0.45,0.09-0.91,0.13-1.36,0.13c-0.46,0-0.92-0.04-1.37-0.13c-0.45-0.09-0.89-0.23-1.31-0.4c-0.43-0.18-0.83-0.39-1.21-0.65    c-0.38-0.25-0.74-0.54-1.06-0.87c-0.33-0.32-0.62-0.68-0.87-1.06c-0.26-0.38-0.47-0.79-0.65-1.21c-0.17-0.42-0.31-0.86-0.4-1.31    s-0.13-0.91-0.13-1.37c0-1.84,0.74-3.64,2.05-4.95c0.32-0.32,0.68-0.61,1.06-0.87c0.38-0.25,0.78-0.46,1.21-0.64    c0.42-0.17,0.86-0.31,1.31-0.4c0.9-0.18,1.83-0.18,2.73,0c0.45,0.09,0.89,0.23,1.31,0.4c0.43,0.18,0.83,0.39,1.21,0.64    c0.38,0.26,0.74,0.55,1.07,0.87C121.85,147.47,122.59,149.27,122.59,151.11z"/>
<path class="st6" d="M410.95,234.77c0,1.84-0.75,3.64-2.05,4.94c-0.33,0.33-0.68,0.62-1.07,0.87c-0.38,0.26-0.78,0.47-1.2,0.65    c-0.43,0.17-0.87,0.31-1.31,0.4c-0.46,0.09-0.92,0.13-1.37,0.13c-0.46,0-0.92-0.04-1.37-0.13s-0.89-0.23-1.31-0.4    c-0.42-0.18-0.83-0.39-1.21-0.65c-0.01,0-0.01-0.01-0.02-0.01c-0.13-0.09-0.27-0.18-0.4-0.3c-0.14-0.1-0.26-0.22-0.38-0.33    c-0.09-0.08-0.18-0.15-0.26-0.23c-0.32-0.32-0.62-0.68-0.87-1.06c-0.25-0.38-0.47-0.79-0.65-1.21c-0.17-0.42-0.3-0.86-0.39-1.31    c-0.09-0.45-0.14-0.91-0.14-1.36c0-0.46,0.05-0.92,0.14-1.37c0.09-0.45,0.22-0.89,0.39-1.31c0.18-0.43,0.4-0.83,0.65-1.21    s0.55-0.74,0.87-1.06c0.32-0.33,0.68-0.62,1.06-0.88c0.38-0.25,0.79-0.46,1.21-0.64c0.42-0.17,0.86-0.31,1.31-0.4    c0.9-0.18,1.83-0.18,2.74,0c0.33,0.07,0.66,0.17,0.99,0.29c0.11,0.03,0.21,0.07,0.32,0.11c0.05,0.02,0.1,0.04,0.15,0.07    c0.16,0.07,0.29,0.16,0.44,0.24c0.21,0.11,0.42,0.2,0.61,0.33c0.39,0.26,0.74,0.55,1.07,0.88    C410.2,231.12,410.95,232.92,410.95,234.77z"/>
<path class="st6" d="M406.16,72.77c-20.11-19.55-46.61-30.09-74.67-29.7c-29.5,0.42-56.94,12.98-76.5,34.77    c-20.16-21.23-47.9-33-77.45-32.6c-28.04,0.39-54.25,11.68-73.79,31.79c-19.55,20.11-30.1,46.63-29.7,74.67    c0.79,56.24,39.03,118.45,113.71,184.92c0.24,0.21,0.49,0.41,0.74,0.6l0.08,0.06c0.94,0.82,1.86,1.55,2.76,2.25l0.92,0.73    c1.48,1.18,3.01,2.41,4.61,3.54c1.17,0.83,2.32,1.57,3.43,2.29l0.61,0.39c1.62,1.04,3.21,2.04,4.92,3    c1.35,0.77,2.72,1.48,4.03,2.16c1.43,0.73,2.81,1.38,4.18,2.01v42.7h-6.21c-3.87,0-7,3.14-7,7v58.59c0,3.87,3.13,7,7,7h96.34    c3.87,0,7-3.13,7-7v-58.59c0-3.86-3.13-7-7-7h-6.21V355c0.23-0.09,0.45-0.18,0.68-0.27c1.3-0.56,2.58-1.15,3.91-1.77    c1.74-0.83,3.47-1.72,5.24-2.69c1.62-0.88,2.87-1.59,4.03-2.29c1.69-1.02,3.31-2.11,4.82-3.14l0.44-0.3    c1.13-0.77,2.3-1.57,3.52-2.49c1.49-1.13,2.9-2.31,4.25-3.45l1.03-0.86c0.89-0.74,1.81-1.51,2.74-2.37l0.11-0.09    c0.25-0.2,0.49-0.4,0.72-0.61l0.08-0.08c27.25-25.67,49.67-50.89,66.65-74.98c2.23-3.16,1.47-7.53-1.69-9.75    c-0.11-0.07-0.22-0.13-0.33-0.2c-0.14-0.09-0.28-0.19-0.43-0.26c-0.15-0.08-0.3-0.15-0.46-0.22c-2.98-1.33-6.57-0.41-8.53,2.36    c-16.42,23.3-38.19,47.78-64.72,72.78l-0.11,0.09c-0.18,0.15-0.37,0.3-0.55,0.46c-0.05,0.04-0.09,0.08-0.14,0.13    c-0.7,0.65-1.48,1.3-2.3,1.98l-1.09,0.92c-1.28,1.07-2.48,2.08-3.64,2.96c-0.96,0.72-1.96,1.4-3.02,2.13l-0.43,0.3    c-1.33,0.9-2.75,1.85-4.15,2.7c-0.99,0.59-2.06,1.21-3.51,1.99c-1.56,0.86-3.05,1.62-4.51,2.32c-1.15,0.54-2.31,1.07-3.4,1.54    c-1.46,0.61-2.97,1.2-4.53,1.76l-1.44,0.52c-0.78,0.27-1.55,0.55-2.35,0.8c-0.74,0.24-1.49,0.44-2.23,0.65    c-1.12,0.3-2.23,0.59-3.3,0.86c-0.36,0.09-0.72,0.18-1.08,0.27c-0.64,0.17-1.28,0.33-1.94,0.47c-2.04,0.44-4.11,0.74-6.04,1    l-0.18,0.03l-0.13,0.02c-0.34,0.05-0.68,0.11-1.02,0.17c-0.44,0.07-0.89,0.14-1.31,0.19c-3.12,0.35-5.99,0.54-8.73,0.57h-0.11    c-2.75,0.04-5.7-0.06-8.8-0.32c-0.36-0.03-0.72-0.08-1.08-0.13c-0.46-0.06-0.92-0.13-1.3-0.16l-0.1-0.02    c-1.14-0.13-2.27-0.26-3.44-0.42c-1.01-0.13-1.92-0.28-2.78-0.43c-0.7-0.13-1.38-0.29-2.08-0.45l-0.97-0.22    c-2.19-0.46-3.96-0.89-5.53-1.34c-1.03-0.29-2.04-0.62-3.06-0.95l-0.23-0.08c-1.93-0.62-3.59-1.21-5.1-1.81    c-0.04-0.02-0.08-0.03-0.12-0.05l-0.13-0.04c-0.16-0.08-0.32-0.15-0.48-0.21c-0.91-0.36-1.81-0.74-2.69-1.12    c-1.52-0.68-3.05-1.41-4.65-2.22c-1.15-0.59-2.37-1.23-3.53-1.89c-1.41-0.79-2.82-1.69-4.23-2.58l-0.58-0.37    c-1.02-0.67-1.99-1.29-2.93-1.96c-1.3-0.92-2.6-1.96-4.04-3.11l-0.93-0.74c-0.8-0.63-1.56-1.22-2.22-1.8    c-0.24-0.22-0.5-0.42-0.75-0.61l-0.08-0.06C125.42,262.37,88.78,203.64,88.05,151.5c-0.35-24.3,8.79-47.28,25.73-64.71    c16.94-17.43,39.66-27.21,63.96-27.55c27.98-0.41,54.25,11.92,71.96,33.79c1.33,1.64,3.33,2.59,5.44,2.59h0.1    c2.14-0.03,4.16-1.04,5.46-2.75c17.1-22.36,42.97-35.41,70.99-35.8c24.32-0.34,47.28,8.79,64.71,25.73    c17.42,16.95,27.21,39.66,27.55,63.96c0.27,19.41-4.5,40.18-14.2,61.72c-1.43,3.2-0.27,6.9,2.59,8.74    c0.14,0.09,0.28,0.18,0.43,0.26c0.14,0.09,0.29,0.16,0.44,0.23c0.02,0.01,0.04,0.02,0.06,0.03c3.52,1.58,7.67,0.01,9.25-3.51    c10.54-23.43,15.73-46.2,15.43-67.67C437.55,118.52,426.26,92.31,406.16,72.77z M214.83,410.35h17.53c3.7,0,6.72-2.86,6.97-6.49    c0.02-0.17,0.03-0.34,0.03-0.51s-0.01-0.33-0.03-0.49c-0.25-3.63-3.27-6.51-6.97-6.51h-4.32v-37.47c0.27,0.09,0.54,0.17,0.82,0.25    c1.91,0.54,3.96,1.03,6.4,1.56l0.85,0.19c0.88,0.2,1.76,0.39,2.64,0.55c1.08,0.2,2.2,0.38,3.41,0.54c1.25,0.18,2.5,0.32,3.76,0.46    c0.02,0.01,0.15,0.02,0.17,0.02c0.3,0.03,0.59,0.08,0.89,0.12c0.63,0.08,1.26,0.17,1.87,0.22c0.44,0.03,0.88,0.06,1.32,0.09v11.83    c0,3.87,3.13,7,7,7s7-3.13,7-7v-11.77c1.62-0.11,3.28-0.25,5.01-0.44c0.67-0.08,1.35-0.19,2.02-0.3c0.29-0.05,0.57-0.09,0.85-0.14    c0.04,0,0.07-0.01,0.11-0.01l0.09-0.02c2.07-0.28,4.5-0.64,6.95-1.16c0.85-0.18,1.69-0.39,2.54-0.61l0.94-0.24    c0.42-0.11,0.85-0.21,1.28-0.32v36.65h-1.85c-3.7,0-6.72,2.88-6.98,6.51c-0.01,0.16-0.02,0.32-0.02,0.49s0.01,0.34,0.03,0.51    c0.25,3.63,3.27,6.49,6.97,6.49h15.06v44.59h-82.34V410.35z"/>
<path class="st6" d="M264.68,403.35c0,0.17-0.01,0.34-0.03,0.51c-0.12,1.66-0.84,3.26-2.02,4.44c-0.32,0.33-0.68,0.62-1.07,0.87    c-0.37,0.26-0.78,0.47-1.2,0.65c-0.42,0.17-0.87,0.31-1.31,0.4c-0.45,0.09-0.91,0.13-1.37,0.13c-0.46,0-0.92-0.04-1.37-0.13    c-0.44-0.09-0.89-0.23-1.31-0.4c-0.42-0.18-0.83-0.39-1.21-0.65c-0.38-0.25-0.74-0.54-1.06-0.87c-1.18-1.18-1.9-2.78-2.02-4.44    c-0.02-0.17-0.03-0.34-0.03-0.51c0-0.16,0.01-0.33,0.03-0.49c0.02-0.29,0.05-0.58,0.11-0.87c0.09-0.45,0.22-0.89,0.4-1.31    c0.17-0.43,0.39-0.83,0.64-1.21s0.55-0.74,0.87-1.07c0.32-0.32,0.68-0.61,1.06-0.87c0.38-0.25,0.79-0.46,1.21-0.64    c0.43-0.17,0.87-0.31,1.31-0.4c2.28-0.45,4.69,0.29,6.32,1.91c0.32,0.33,0.61,0.69,0.87,1.07c0.25,0.38,0.47,0.78,0.64,1.21    c0.18,0.42,0.31,0.86,0.4,1.31c0.06,0.29,0.09,0.58,0.11,0.87C264.67,403.02,264.68,403.19,264.68,403.35z"/>
<path class="st7" d="M297.17,410.35v44.59h-82.34v-44.59h17.53c3.7,0,6.72-2.86,6.97-6.49c0.02-0.17,0.03-0.34,0.03-0.51    s-0.01-0.33-0.03-0.49h11.38c-0.02,0.16-0.03,0.33-0.03,0.49c0,0.17,0.01,0.34,0.03,0.51c0.12,1.66,0.84,3.26,2.02,4.44    c0.32,0.33,0.68,0.62,1.06,0.87c0.38,0.26,0.79,0.47,1.21,0.65c0.42,0.17,0.87,0.31,1.31,0.4c0.45,0.09,0.91,0.13,1.37,0.13    c0.46,0,0.92-0.04,1.37-0.13c0.44-0.09,0.89-0.23,1.31-0.4c0.42-0.18,0.83-0.39,1.2-0.65c0.39-0.25,0.75-0.54,1.07-0.87    c1.18-1.18,1.9-2.78,2.02-4.44c0.02-0.17,0.03-0.34,0.03-0.51c0-0.16-0.01-0.33-0.03-0.49h10.48c-0.01,0.16-0.02,0.32-0.02,0.49    s0.01,0.34,0.03,0.51c0.25,3.63,3.27,6.49,6.97,6.49H297.17z"/>
</g>
</g>
</svg>